<?xml version="1.0" encoding="UTF-8"?>
<svg version="1.1" xmlns="http://www.w3.org/2000/svg" width="1024" height="1024">
<path d="M0 0 C337.92 0 675.84 0 1024 0 C1024 337.92 1024 675.84 1024 1024 C686.08 1024 348.16 1024 0 1024 C0 686.08 0 348.16 0 0 Z " fill="#F2EFEA" transform="translate(0,0)"/>
<path d="M0 0 C7.80056352 3.06612839 13.43221688 2.49051453 22.68554688 3.06884766 C22.68554688 42.66884766 22.68554688 82.26884766 22.68554688 123.06884766 C18.06554687 123.06884766 13.44554687 123.06884766 8.68554688 123.06884766 C8.564375 121.85068359 8.44320312 120.63251953 8.31835938 119.37744141 C8.14941616 117.75370937 7.98012692 116.13001331 7.81054688 114.50634766 C7.73191406 113.70648438 7.65328125 112.90662109 7.57226562 112.08251953 C7.05417866 107.20054621 6.05015548 102.79700326 4.68554688 98.06884766 C4.35472134 95.90403061 4.10474785 93.73665645 3.85131836 91.56152344 C1.7844887 74.73187268 -5.47049028 61.8358778 -16.31445312 49.06884766 C-17.25998047 47.91449219 -17.25998047 47.91449219 -18.22460938 46.73681641 C-22.19107202 42.01139508 -26.58022241 38.00986511 -31.31445312 34.06884766 C-32.55001953 33.00150391 -32.55001953 33.00150391 -33.81054688 31.91259766 C-51.37557828 17.02438526 -71.19350286 7.86143655 -94.31445312 7.06884766 C-95.59956787 7.01204834 -95.59956787 7.01204834 -96.91064453 6.95410156 C-119.03517585 6.05915124 -139.38462827 8.75646201 -156.70507812 23.55712891 C-169.28661395 35.66779886 -174.38991201 50.99314433 -174.75195312 68.06884766 C-174.72860587 87.84981227 -166.83853006 107.27530884 -153.09375 121.53442383 C-141.86858903 132.6285314 -129.12320123 140.56739325 -115.31445312 148.06884766 C-114.41952148 148.56078613 -113.52458984 149.05272461 -112.60253906 149.55957031 C-95.63212347 158.83906232 -78.09239719 166.62779659 -60.39674377 174.39100647 C-39.99637695 183.34855479 -19.42832269 192.97319084 -1.31445312 206.06884766 C-0.37214844 206.73916016 0.57015625 207.40947266 1.54101562 208.10009766 C13.88005613 217.09765427 25.60142122 226.6966029 34.68554688 239.06884766 C35.28496094 239.86548828 35.884375 240.66212891 36.50195312 241.48291016 C54.53750141 266.25657156 64.57420532 295.28895075 63.68554688 326.06884766 C63.6571875 327.15423828 63.62882813 328.23962891 63.59960938 329.35791016 C62.26876752 358.44631068 52.18660034 384.80808238 35.99804688 408.81884766 C35.55871826 409.47473877 35.11938965 410.13062988 34.66674805 410.80639648 C31.75301846 414.98435885 28.66719952 417.90199433 24.68554688 421.06884766 C23.60868025 422.26729599 22.56236652 423.49449286 21.56054688 424.75634766 C-3.16290706 453.46571791 -43.8037731 466.21093938 -80.31445312 469.06884766 C-83.66388758 469.21386848 -87.00900761 469.25547725 -90.36132812 469.27197266 C-91.29382385 469.27767273 -92.22631958 469.2833728 -93.18707275 469.28924561 C-95.15351248 469.29863205 -97.11996748 469.30520405 -99.08642578 469.30908203 C-102.01559973 469.31868745 -104.94403987 469.34973078 -107.87304688 469.38134766 C-121.25049864 469.45637653 -134.12425419 468.2709435 -147.31445312 466.06884766 C-148.44963379 465.88064453 -149.58481445 465.69244141 -150.75439453 465.49853516 C-153.43076823 465.0216591 -156.09069194 464.49847521 -158.75195312 463.94384766 C-159.73945557 463.74210937 -160.72695801 463.54037109 -161.74438477 463.33251953 C-171.94258083 461.21079336 -182.09839913 458.89319163 -192.25195312 456.56884766 C-193.06558319 456.38352478 -193.87921326 456.1982019 -194.71749878 456.00726318 C-206.34752588 453.35030544 -217.84601595 450.3517651 -229.31445312 447.06884766 C-230.77004708 446.65459596 -232.22569395 446.24053013 -233.68139648 445.82666016 C-236.89369782 444.91178138 -240.10468267 443.99255973 -243.31445312 443.06884766 C-243.31445312 442.07884766 -243.31445312 441.08884766 -243.31445312 440.06884766 C-241.50585938 438.70166016 -241.50585938 438.70166016 -238.87695312 437.19384766 C-220.96333314 426.26977966 -205.97645143 411.92098715 -191.31445312 397.06884766 C-188.02713625 398.16461995 -187.43441557 398.84689366 -185.31445312 401.44384766 C-173.1389138 415.64864354 -160.35881688 426.28220687 -142.31445312 432.06884766 C-140.95232995 432.52544952 -139.5903578 432.98250211 -138.22851562 433.43994141 C-136.82044517 433.9019721 -135.41159811 434.36164334 -134.00195312 434.81884766 C-133.35621338 435.03001221 -132.71047363 435.24117676 -132.04516602 435.45874023 C-114.44479056 440.94688394 -93.03570041 439.42374992 -75.31445312 435.06884766 C-74.20585938 434.80201172 -73.09726562 434.53517578 -71.95507812 434.26025391 C-50.43544749 428.35547721 -32.38495979 415.69927723 -20.77929688 396.53369141 C-10.60459049 377.39777572 -9.43158506 354.71738593 -15.62109375 334.12060547 C-18.79041873 324.74208184 -23.81991374 316.51447022 -30.31445312 309.06884766 C-30.9925 308.25931641 -31.67054688 307.44978516 -32.36914062 306.61572266 C-46.89914736 289.75884652 -66.21333258 279.78154818 -85.95410156 270.21679688 C-89.50606442 268.48931142 -93.0349608 266.71666397 -96.56445312 264.94384766 C-100.36692323 263.03955482 -104.17082699 261.13841327 -107.98242188 259.25244141 C-140.92147883 242.92728797 -173.73359684 226.07496279 -201.06054688 201.10009766 C-202.87779659 199.46236827 -204.7161224 197.90610261 -206.62695312 196.38134766 C-209.57298677 193.84638847 -211.86638235 191.08185784 -214.31445312 188.06884766 C-215.10207031 187.28123047 -215.8896875 186.49361328 -216.70117188 185.68212891 C-229.30787642 173.07542437 -237.49514552 157.79466403 -243.31445312 141.06884766 C-243.6315625 140.15748047 -243.94867187 139.24611328 -244.27539062 138.30712891 C-246.33283615 131.3301478 -246.69952724 124.34757055 -247.18945312 117.13134766 C-247.85301035 107.85215771 -248.94053213 100.3948394 -253.31445312 92.06884766 C-253.90484375 90.93705078 -254.49523437 89.80525391 -255.10351562 88.63916016 C-259.57249468 80.37478072 -264.8237591 72.68588618 -270.31445312 65.06884766 C-271.01183594 64.07111328 -271.70921875 63.07337891 -272.42773438 62.04541016 C-289.55056475 38.19239965 -313.81278245 20.98637996 -342.50195312 14.31884766 C-343.69498047 14.02880859 -344.88800781 13.73876953 -346.1171875 13.43994141 C-377.73176632 5.82741501 -400.61515862 8.59244897 -438.31445312 8.06884766 C-438.31445312 147.98884766 -438.31445312 287.90884766 -438.31445312 432.06884766 C-388.50812553 432.80181315 -388.50812553 432.80181315 -340.31445312 423.06884766 C-339.15429688 422.66537109 -337.99414062 422.26189453 -336.79882812 421.84619141 C-330.22482132 419.42377895 -324.04036323 416.52771647 -317.87304688 413.20556641 C-315.31445312 412.06884766 -315.31445312 412.06884766 -311.31445312 412.06884766 C-311.31445312 411.40884766 -311.31445312 410.74884766 -311.31445312 410.06884766 C-310.51007813 409.73884766 -309.70570313 409.40884766 -308.87695312 409.06884766 C-304.95961496 407.11017857 -302.00280901 404.24916481 -298.79882812 401.30322266 C-296.23173499 398.99445336 -293.57713973 396.84484377 -290.87695312 394.69384766 C-278.52232562 384.53255208 -270.61449987 373.65049623 -262.31445312 360.06884766 C-261.88745117 359.3854834 -261.46044922 358.70211914 -261.02050781 357.99804688 C-243.61450231 330.0061429 -235.97465355 297.59737439 -233.31445312 265.06884766 C-233.21946533 264.01713379 -233.12447754 262.96541992 -233.02661133 261.88183594 C-232.19174232 251.81218893 -232.19992865 241.78855941 -232.25195312 231.69384766 C-232.25698345 229.97509898 -232.26154362 228.25634885 -232.265625 226.53759766 C-232.27649703 222.38131115 -232.29367508 218.22509596 -232.31445312 214.06884766 C-231.20981167 215.00033831 -230.10738319 215.93445359 -229.00585938 216.86962891 C-228.39170166 217.38952393 -227.77754395 217.90941895 -227.14477539 218.44506836 C-225.41749286 219.97743545 -223.83010675 221.57249215 -222.25195312 223.25634766 C-203.04777971 242.67342765 -177.62022583 256.34857107 -153.97241211 269.44262695 C-149.41162722 271.97167356 -149.41162722 271.97167356 -148.31445312 273.06884766 C-147.74084896 295.78856043 -153.60020009 317.68411779 -163.31445312 338.06884766 C-163.85714844 339.27154297 -164.39984375 340.47423828 -164.95898438 341.71337891 C-174.49210116 362.00894383 -188.9154141 379.92687254 -204.31445312 396.06884766 C-205.11367188 396.92091797 -205.91289063 397.77298828 -206.73632812 398.65087891 C-213.37466519 405.53869596 -220.62679426 411.40970406 -228.31445312 417.06884766 C-228.87165039 417.48102539 -229.42884766 417.89320313 -230.00292969 418.31787109 C-253.87856069 435.71637848 -281.79030348 446.97248895 -310.31445312 454.06884766 C-311.40113281 454.35244141 -312.4878125 454.63603516 -313.60742188 454.92822266 C-323.37518447 457.3546884 -333.34851942 458.72855181 -343.31445312 460.06884766 C-344.48216499 460.2384069 -345.64987686 460.40796614 -346.85297394 460.58266354 C-351.65444694 461.1773192 -356.4032035 461.20483141 -361.23596191 461.18910217 C-362.69179255 461.19038381 -362.69179255 461.19038381 -364.1770339 461.19169134 C-367.41361458 461.19333217 -370.65014288 461.1878477 -373.88671875 461.18237305 C-376.21299234 461.18209085 -378.53926601 461.18224955 -380.86553955 461.18281555 C-387.17065767 461.18310225 -393.47575674 461.1772261 -399.78087044 461.17024159 C-405.70562745 461.16462082 -411.63038374 461.16361793 -417.55514306 461.16258972 C-429.28611458 461.160404 -441.01707913 461.15375692 -452.74804688 461.14428711 C-464.1399736 461.13510058 -475.53189844 461.12802582 -486.92382812 461.1237793 C-487.97807188 461.12338521 -487.97807188 461.12338521 -489.05361348 461.12298317 C-492.57968921 461.12167808 -496.10576495 461.12041438 -499.63184071 461.11917126 C-528.85938271 461.10881358 -558.08691783 461.0911337 -587.31445312 461.06884766 C-587.31445312 456.44884766 -587.31445312 451.82884766 -587.31445312 447.06884766 C-586.033125 446.78912109 -584.75179687 446.50939453 -583.43164062 446.22119141 C-566.7002852 442.41226931 -550.57090214 437.16145662 -540.43945312 422.19384766 C-535.59412819 413.602846 -533.19856651 404.57506786 -533.17743874 394.74296951 C-533.17236419 393.484618 -533.16728965 392.22626648 -533.16206133 390.92978311 C-533.16145975 389.54101837 -533.16096064 388.15225358 -533.16055298 386.76348877 C-533.15653516 385.28208481 -533.15209641 383.80068194 -533.14727342 382.31928039 C-533.13533725 378.25162016 -533.12966633 374.18397178 -533.12509227 370.11629748 C-533.11912478 365.72746174 -533.10751766 361.33864007 -533.09680176 356.94981384 C-533.0723016 346.35073027 -533.05765286 335.75164206 -533.04474169 325.1525389 C-533.04102762 322.15664777 -533.03705455 319.16075711 -533.03298903 316.16486645 C-533.00774724 297.54425328 -532.98570311 278.92363934 -532.97326088 260.30301285 C-532.97033138 255.99172208 -532.96736969 251.68043134 -532.96435547 247.36914062 C-532.96360942 246.29764329 -532.96286337 245.22614595 -532.96209471 244.122179 C-532.94945308 226.78174661 -532.91624483 209.44141703 -532.87455364 192.10103264 C-532.83206081 174.28045955 -532.80855726 156.45993897 -532.80334032 138.63931537 C-532.79993423 128.64091513 -532.7882742 118.64267547 -532.75523758 108.64432526 C-532.7271346 100.12533279 -532.71628242 91.60653384 -532.72743304 83.08749864 C-532.73259384 78.74695113 -532.72990256 74.40680823 -532.7049675 70.06632042 C-531.8950742 37.76299172 -531.8950742 37.76299172 -546.34570312 9.86962891 C-554.83499561 1.78387673 -564.80621485 -1.67964448 -575.93945312 -4.74365234 C-577.03902344 -5.05496094 -578.13859375 -5.36626953 -579.27148438 -5.68701172 C-581.94997009 -6.44397507 -584.63186941 -7.1888425 -587.31445312 -7.93115234 C-587.31445312 -11.89115234 -587.31445312 -15.85115234 -587.31445312 -19.93115234 C-556.52848314 -20.04561605 -525.74256258 -20.13390614 -494.95643014 -20.18647899 C-491.3084368 -20.19273131 -487.66044388 -20.19920304 -484.01245117 -20.20581055 C-483.28630831 -20.2071221 -482.56016546 -20.20843365 -481.81201827 -20.20978495 C-470.10826203 -20.2314454 -458.40463064 -20.27081423 -446.70094807 -20.31691632 C-434.66055302 -20.36394345 -422.62022261 -20.39150267 -410.57973951 -20.40159482 C-403.82993254 -20.40779485 -397.08042419 -20.4231377 -390.33070564 -20.45980263 C-383.95720015 -20.49413827 -377.58408802 -20.50413056 -371.21049881 -20.49669075 C-368.89083265 -20.4980487 -366.57115115 -20.50775412 -364.25156593 -20.52717972 C-328.87435692 -20.8085221 -293.2686296 -10.62638546 -262.12939453 6.10253906 C-260.31180533 7.07025739 -258.4789249 8.00052989 -256.63867188 8.92431641 C-247.02217133 13.81253494 -238.14717523 19.65002595 -229.25537109 25.74267578 C-226.62341032 27.54101678 -223.97059988 29.3064754 -221.31445312 31.06884766 C-221.04366943 30.47426758 -220.77288574 29.8796875 -220.49389648 29.26708984 C-218.5832843 25.7060979 -215.72858621 23.14552943 -212.87695312 20.31884766 C-212.25312744 19.69776123 -211.62930176 19.0766748 -210.98657227 18.43676758 C-205.082478 12.66369135 -198.84361028 7.78083538 -191.74414062 3.52978516 C-189.58231262 2.22990787 -187.55637176 0.84161671 -185.50195312 -0.61865234 C-178.82350367 -5.09701059 -171.57296064 -8.50784125 -164.31445312 -11.93115234 C-163.43789063 -12.34623047 -162.56132813 -12.76130859 -161.65820312 -13.18896484 C-153.88977446 -16.56769923 -145.57044447 -18.19705375 -137.31445312 -19.93115234 C-136.28964844 -20.16060547 -135.26484375 -20.39005859 -134.20898438 -20.62646484 C-91.90202899 -28.7338706 -39.25499787 -16.51718099 0 0 Z " fill="#343E41" transform="translate(779.314453125,260.93115234375)"/>
<path d="M0 0 C0 0.33 0 0.66 0 1 C-0.83144531 1.04898438 -1.66289063 1.09796875 -2.51953125 1.1484375 C-3.60621094 1.22320312 -4.69289063 1.29796875 -5.8125 1.375 C-6.89144531 1.44460937 -7.97039063 1.51421875 -9.08203125 1.5859375 C-12.18626186 1.81195733 -12.18626186 1.81195733 -15 4 C-15 2.68 -15 1.36 -15 0 C-35.79 0.495 -35.79 0.495 -57 1 C-57 0.67 -57 0.34 -57 0 C-38.45774016 -4.12869404 -18.66812316 -2.49204981 0 0 Z " fill="#182124" transform="translate(699,241)"/>
<path d="M0 0 C7.875 6.75 7.875 6.75 10.9375 9.875 C11.52402344 10.47054688 12.11054687 11.06609375 12.71484375 11.6796875 C13.13894531 12.11539062 13.56304688 12.55109375 14 13 C11 13 11 13 8.95703125 11.25 C6.97135417 9.16666667 4.98567708 7.08333333 3 5 C2.67 11.6 2.34 18.2 2 25 C1.67 25 1.34 25 1 25 C0.67 16.75 0.34 8.5 0 0 Z " fill="#232C2F" transform="translate(547,475)"/>
<path d="M0 0 C1 3 1 3 0.27490234 4.82177734 C-0.11745605 5.4864502 -0.50981445 6.15112305 -0.9140625 6.8359375 C-1.34589844 7.57070313 -1.77773438 8.30546875 -2.22265625 9.0625 C-2.68542969 9.825625 -3.14820313 10.58875 -3.625 11.375 C-4.06457031 12.13039063 -4.50414062 12.88578125 -4.95703125 13.6640625 C-7.56748924 18.04289525 -10.22037101 21.57513763 -14 25 C-12.20651677 20.00904413 -9.42632986 15.9844568 -6.4609375 11.62109375 C-4.67542783 8.91780351 -4.67542783 8.91780351 -5 5 C-4.01 5 -3.02 5 -2 5 C-1.34 3.35 -0.68 1.7 0 0 Z " fill="#212B2E" transform="translate(613,601)"/>
<path d="M0 0 C-2.21928194 2.90802461 -3.92969143 4.95312762 -7 7 C-7 6.34 -7 5.68 -7 5 C-9.31 5.33 -11.62 5.66 -14 6 C-11.72698066 3.45655714 -9.54913519 2.12383563 -6.4375 0.75 C-5.65246094 0.39421875 -4.86742187 0.0384375 -4.05859375 -0.328125 C-2 -1 -2 -1 0 0 Z " fill="#2B3538" transform="translate(465,675)"/>
<path d="M0 0 C1.32 0 2.64 0 4 0 C3.39655166 4.08258878 2.05381582 7.1471303 0.0625 10.75 C-0.46214844 11.71421875 -0.98679687 12.6784375 -1.52734375 13.671875 C-3 16 -3 16 -5 17 C-4.71125 16.29875 -4.4225 15.5975 -4.125 14.875 C-2.19339806 9.93868393 -0.7512769 5.25893829 0 0 Z " fill="#222C2F" transform="translate(824,645)"/>
<path d="M0 0 C5.91260345 -0.25706972 11.23918159 0.7017874 17 2 C17 2.66 17 3.32 17 4 C11.06 3.67 5.12 3.34 -1 3 C-0.67 2.01 -0.34 1.02 0 0 Z " fill="#E1E1DF" transform="translate(681,237)"/>
<path d="M0 0 C4.10958767 1.45044271 7.43258745 3.51110752 11 6 C10.443125 6.12375 9.88625 6.2475 9.3125 6.375 C6.77885636 7.05976855 4.42078968 7.99133763 2 9 C2.04125 8.071875 2.0825 7.14375 2.125 6.1875 C2.27136339 2.84190281 2.27136339 2.84190281 0 0 Z " fill="#283235" transform="translate(640,396)"/>
<path d="M0 0 C0 0.66 0 1.32 0 2 C0.515625 2.12375 1.03125 2.2475 1.5625 2.375 C4.72702351 3.18641628 7.86124985 4.0945913 11 5 C11 5.33 11 5.66 11 6 C5.08507728 5.54775239 -0.35199888 4.8417395 -6 3 C-2.25 0 -2.25 0 0 0 Z " fill="#273034" transform="translate(572,709)"/>
<path d="M0 0 C2.62561109 -0.08074203 5.24875676 -0.1403623 7.875 -0.1875 C8.99455078 -0.22520508 8.99455078 -0.22520508 10.13671875 -0.26367188 C12.3046875 -0.29296875 12.3046875 -0.29296875 16 0 C16.66 0.99 17.32 1.98 18 3 C15.74943278 2.88566637 13.49953326 2.75813564 11.25 2.625 C9.99703125 2.55539062 8.7440625 2.48578125 7.453125 2.4140625 C4.39001879 2.04676696 2.58025734 1.60288714 0 0 Z " fill="#E6E6E3" transform="translate(649,697)"/>
<path d="M0 0 C0.99 0.66 1.98 1.32 3 2 C0.03 4.64 -2.94 7.28 -6 10 C-8 9 -8 9 -9 7 C-6.95027548 5.97513774 -4.91969785 4.96558479 -2.8125 4.0625 C-0.65604893 3.06565448 -0.65604893 3.06565448 0 0 Z " fill="#242E31" transform="translate(561,665)"/>
<path d="M0 0 C1.0625 1.8125 1.0625 1.8125 2 4 C1.67 4.99 1.34 5.98 1 7 C1.88319294 10.15020361 1.88319294 10.15020361 3 13 C0.02473335 10.44977144 -1.50122302 7.59706474 -3 4 C-2.67 3.01 -2.34 2.02 -2 1 C-1.34 1.33 -0.68 1.66 0 2 C0 1.34 0 0.68 0 0 Z " fill="#262E31" transform="translate(543,409)"/>
<path d="M0 0 C6.6 0.33 13.2 0.66 20 1 C20 1.33 20 1.66 20 2 C19.01257813 2.06058594 18.02515625 2.12117187 17.0078125 2.18359375 C15.72648438 2.26738281 14.44515625 2.35117187 13.125 2.4375 C11.84882812 2.51871094 10.57265625 2.59992187 9.2578125 2.68359375 C6.11699848 2.79206027 6.11699848 2.79206027 4 4 C3.67 3.34 3.34 2.68 3 2 C2.01 1.34 1.02 0.68 0 0 Z " fill="#131D21" transform="translate(661,700)"/>
<path d="M0 0 C1.26426661 3.79279982 0.40145184 5.34065352 -1 9 C-1.33 9.66 -1.66 10.32 -2 11 C-2.66 11 -3.32 11 -4 11 C-3.5247412 9.35303396 -3.04468109 7.70745272 -2.5625 6.0625 C-2.29566406 5.14597656 -2.02882813 4.22945312 -1.75390625 3.28515625 C-1 1 -1 1 0 0 Z " fill="#293236" transform="translate(534,587)"/>
<path d="M0 0 C0.99 1.32 1.98 2.64 3 4 C1.6875 5.5 1.6875 5.5 0 7 C-0.99 7 -1.98 7 -3 7 C-2.38722388 4.03824877 -1.74627478 2.61941217 0 0 Z " fill="#3C4548" transform="translate(794,685)"/>
<path d="M0 0 C0.66 0.66 1.32 1.32 2 2 C0.02 4.97 -1.96 7.94 -4 11 C-5 8 -5 8 -3.5625 4.8125 C-3.046875 3.884375 -2.53125 2.95625 -2 2 C-1.34 2 -0.68 2 0 2 C0 1.34 0 0.68 0 0 Z " fill="#E8E8E6" transform="translate(515,621)"/>
<path d="M0 0 C6.52307692 1.35384615 6.52307692 1.35384615 8.9375 4.625 C9.288125 5.40875 9.63875 6.1925 10 7 C6.42032008 5.34784004 3.22017048 3.26875648 0 1 C0 0.67 0 0.34 0 0 Z " fill="#20292D" transform="translate(722,545)"/>
<path d="M0 0 C0.66 0.33 1.32 0.66 2 1 C2.59355614 3.64860427 2.74209269 6.29197322 3 9 C2.34 9 1.68 9 1 9 C-0.61949011 6.42786866 -1.04408751 5.32330841 -0.625 2.25 C-0.41875 1.5075 -0.2125 0.765 0 0 Z " fill="#2E373A" transform="translate(605,346)"/>
<path d="M0 0 C4.12751449 0.60698743 7.3321148 2.03810791 11 4 C7.59068103 5.13643966 6.99664544 4.86747764 3.8125 3.5625 C3.09707031 3.27503906 2.38164063 2.98757813 1.64453125 2.69140625 C1.10183594 2.46324219 0.55914063 2.23507812 0 2 C0 1.34 0 0.68 0 0 Z " fill="#E7E8E6" transform="translate(715,274)"/>
<path d="M0 0 C6.625 -0.25 6.625 -0.25 10 2 C6.37 2.33 2.74 2.66 -1 3 C-0.67 2.01 -0.34 1.02 0 0 Z " fill="#E7E8E4" transform="translate(685,697)"/>
<path d="M0 0 C0.433125 0.474375 0.86625 0.94875 1.3125 1.4375 C3.02309613 3.23686957 3.02309613 3.23686957 6 4 C6 5.98 6 7.96 6 10 C3.25722422 6.80009492 1.3697164 3.99500618 0 0 Z " fill="#212B2D" transform="translate(754,574)"/>
<path d="M0 0 C0.33 0.99 0.66 1.98 1 3 C0.34 3.66 -0.32 4.32 -1 5 C-0.67 3.35 -0.34 1.7 0 0 Z M-3 3 C-1 5 -1 5 -1 8 C-1.66 8 -2.32 8 -3 8 C-3 8.66 -3 9.32 -3 10 C-3.66 9.67 -4.32 9.34 -5 9 C-4.34 7.02 -3.68 5.04 -3 3 Z " fill="#E7E6E2" transform="translate(625,579)"/>
<path d="M0 0 C0.99 0.33 1.98 0.66 3 1 C-1.75 5.875 -1.75 5.875 -4 7 C-3.43628586 3.73045798 -2.50037734 2.17424117 0 0 Z " fill="#2A3437" transform="translate(563,285)"/>
<path d="M0 0 C2.4375 1.1875 2.4375 1.1875 3.4375 3.1875 C2.86 3.001875 2.2825 2.81625 1.6875 2.625 C-0.76942525 2.14726454 -2.20647534 2.43020636 -4.5625 3.1875 C-4.5625 2.1975 -4.5625 1.2075 -4.5625 0.1875 C-2.5625 -0.8125 -2.5625 -0.8125 0 0 Z " fill="#242D31" transform="translate(579.5625,502.8125)"/>
</svg>
