<?xml version="1.0" standalone="no"?>
<!DOCTYPE svg PUBLIC "-//W3C//DTD SVG 20010904//EN"
 "http://www.w3.org/TR/2001/REC-SVG-20010904/DTD/svg10.dtd">
<svg version="1.0" xmlns="http://www.w3.org/2000/svg"
 width="512.000000pt" height="512.000000pt" viewBox="0 0 512.000000 512.000000"
 preserveAspectRatio="xMidYMid meet">

<g transform="translate(0.000000,512.000000) scale(0.100000,-0.100000)"
fill="#000000" stroke="none">
<path d="M0 2560 l0 -2560 2560 0 2560 0 0 2560 0 2560 -2560 0 -2560 0 0
-2560z m2137 1022 c15 -12 53 -34 83 -48 105 -48 228 -196 274 -331 13 -37 32
-86 42 -108 17 -36 19 -69 19 -295 l0 -255 -43 -110 c-24 -60 -63 -139 -87
-175 -53 -81 -152 -174 -202 -190 -21 -7 -47 -20 -58 -30 -51 -45 -49 -45
-510 -48 -242 -2 -454 0 -472 3 -67 12 -63 -43 -63 803 0 422 4 772 8 779 19
30 65 32 519 30 l462 -2 28 -23z m1533 1 c19 -12 58 -33 85 -47 100 -48 235
-246 235 -344 0 -68 -19 -76 -181 -80 -77 -2 -151 -1 -164 2 -14 4 -42 23 -63
44 -49 46 -120 90 -170 104 -44 12 -131 5 -170 -14 -130 -67 -139 -87 -59
-147 47 -36 61 -41 142 -51 107 -13 152 -24 182 -45 12 -8 65 -24 119 -35 61
-12 105 -26 118 -39 12 -11 46 -30 76 -44 68 -30 161 -125 180 -182 7 -22 24
-67 38 -100 36 -86 32 -159 -14 -278 -50 -129 -116 -209 -204 -249 -25 -11
-59 -31 -77 -44 -52 -39 -112 -46 -401 -42 l-269 3 -39 27 c-21 15 -59 36 -84
47 -48 22 -118 87 -175 163 -22 30 -50 93 -76 170 l-41 121 23 18 c35 27 70
31 219 27 l132 -3 30 -35 c16 -19 39 -53 51 -75 17 -30 33 -43 71 -56 26 -10
55 -24 65 -32 30 -27 95 -40 163 -33 52 6 80 16 144 55 69 41 81 52 94 89 l14
42 -49 44 c-53 47 -89 60 -202 71 -35 4 -87 19 -122 35 -35 17 -95 34 -141 41
-57 8 -90 18 -108 34 -15 12 -52 34 -82 48 -78 37 -142 102 -190 191 -40 76
-40 78 -40 184 0 86 4 115 19 142 10 19 28 53 40 75 30 56 99 123 151 146 24
11 52 27 61 35 44 39 84 44 364 41 260 -2 271 -3 305 -24z"/>
<path d="M1533 3255 l-23 -16 0 -439 0 -440 25 -16 c21 -14 48 -16 178 -12
148 4 153 5 212 36 33 18 76 38 96 46 32 12 39 22 69 102 80 208 78 396 -6
569 l-39 80 -110 50 -110 50 -135 3 c-112 3 -139 0 -157 -13z"/>
</g>
</svg>
